<svg width="257" height="229" viewBox="0 0 257 229" fill="none" xmlns="http://www.w3.org/2000/svg">
<g clip-path="url(#clip0_165_2)">
<path d="M29.4773 228.546L29.2537 228.464C21.6774 225.61 15.7416 219.574 13.0233 211.959C12.2868 209.843 11.8202 207.642 11.6344 205.409L11.6161 205.196L11.8269 205.234C14.343 205.685 16.9843 205.934 18.1611 206.031L11.5587 201.67L11.5707 201.443C11.6735 199.313 13.0636 197.461 15.0816 196.764C17.1188 196.013 19.4088 196.574 20.8653 198.183C21.5217 198.894 22.2156 199.61 22.8866 200.302C25.1926 202.682 27.5772 205.142 29.085 208.047C31.3526 212.522 31.4757 217.781 29.4199 222.357L29.4773 228.546Z" fill="#F2F2F2"/>
<path d="M163.068 224.32L163.065 224.296C162.773 217.827 161.584 211.429 159.532 205.285L159.53 205.275C159.41 204.644 159.445 203.993 159.632 203.379C160.205 201.617 161.982 200.539 163.812 200.842C165.703 201.197 167.658 200.863 169.324 199.903C170.381 199.29 171.665 199.205 172.794 199.673C173.859 200.107 174.656 201.018 174.942 202.13C174.965 202.217 174.985 202.306 175.001 202.395C175.061 208.895 176.257 215.335 178.535 221.425L178.536 221.433C178.775 222.69 178.395 223.985 177.514 224.916C176.736 225.704 175.646 226.104 174.541 226.006C172.559 225.871 170.52 226.273 168.308 227.234C167.535 227.577 166.666 227.638 165.853 227.406C164.415 226.985 163.338 225.791 163.068 224.32Z" fill="#6C63FF"/>
<path d="M99.6927 135.448V220.406H159.307V135.448C159.309 134.193 158.491 133.084 157.291 132.714C157.015 132.623 156.726 132.578 156.436 132.582H102.572C100.985 132.578 99.6958 133.86 99.6927 135.445V135.448ZM122.958 164.64C122.99 161.131 125.865 158.312 129.38 158.344C132.849 158.376 135.653 161.176 135.685 164.64V174.497C135.669 178.006 132.806 180.838 129.291 180.821C125.8 180.804 122.974 177.983 122.958 174.497V164.64Z" fill="#F2F2F2"/>
<path d="M99.5102 217.689V225.881C99.513 226.765 100.227 227.481 101.112 227.489H157.888C158.774 227.484 159.49 226.766 159.489 225.881V217.689H99.5102Z" fill="#E6E6E6"/>
<path d="M5.91135 7.44714V162.569C5.91461 166.685 9.25594 170.021 13.3787 170.024H243.621C247.744 170.021 251.085 166.685 251.089 162.569V7.44714C251.079 3.33503 247.74 0.00521636 243.621 0H13.3787C9.25999 0.00523686 5.92115 3.33504 5.91135 7.44714Z" fill="#E6E6E6"/>
<path d="M241.701 5.38444H15.2994C13.0941 5.38923 11.3088 7.1754 11.3086 9.37722V160.655C11.3124 162.854 13.0969 164.636 15.2994 164.64H241.701C243.903 164.636 245.688 162.854 245.691 160.655V9.37721C245.691 7.17539 243.906 5.38923 241.701 5.38444ZM184.59 112.861C183.913 114.195 182.541 115.035 181.043 115.032L181.019 115.03C178.848 114.728 176.67 114.529 174.484 114.433C174.823 114.676 175.122 114.971 175.369 115.307C176.003 116.215 176.198 117.358 175.9 118.424C175.406 120.346 175.429 122.421 175.972 124.767C176.169 125.588 176.071 126.452 175.694 127.208C175.017 128.543 173.645 129.383 172.146 129.379L172.123 129.378C166.94 128.657 161.692 128.517 156.478 128.962C156.457 129.093 156.431 129.224 156.397 129.356C155.903 131.277 155.926 133.352 156.469 135.699C156.667 136.52 156.568 137.384 156.191 138.14C155.514 139.475 154.142 140.315 152.644 140.311L152.62 140.309C147.297 139.569 141.906 139.443 136.554 139.932C136.513 141.266 136.652 142.6 136.967 143.898C137.164 144.719 137.065 145.583 136.688 146.338C136.012 147.673 134.639 148.513 133.141 148.51L133.117 148.508C126.692 147.614 120.175 147.614 113.75 148.508H113.74C113.097 148.51 112.463 148.358 111.891 148.063C110.261 147.179 109.523 145.237 110.156 143.496C110.35 142.948 110.494 142.383 110.587 141.809C104.699 141.132 98.749 141.202 92.8789 142.017H92.8685C92.2253 142.02 91.591 141.867 91.0197 141.572C89.3894 140.688 88.6516 138.747 89.2842 137.005C89.9784 135.214 90.0068 133.234 89.3644 131.424C89.0617 130.575 89.0616 129.648 89.3642 128.799C84.9388 128.574 80.502 128.768 76.1132 129.378H76.1028C75.4596 129.38 74.8254 129.228 74.2541 128.932C72.6237 128.048 71.8859 126.107 72.5186 124.366C73.2127 122.575 73.2412 120.594 72.5987 118.784C72.1884 117.634 72.339 116.359 73.0061 115.335C73.6272 114.369 74.6698 113.753 75.8172 113.675C75.9074 113.669 75.9979 113.666 76.0895 113.666C78.338 114.058 80.6083 114.314 82.8879 114.432C81.4337 113.478 80.8245 111.653 81.4146 110.018C82.1088 108.227 82.1372 106.247 81.4948 104.437C81.0844 103.286 81.2351 102.011 81.9021 100.988C81.931 100.944 81.9646 100.904 81.995 100.862C80.3728 100.974 78.7543 101.142 77.1397 101.366H77.1293C76.4861 101.368 75.8518 101.216 75.2805 100.921C73.6502 100.037 72.9124 98.0952 73.545 96.3539C74.2392 94.5627 74.2676 92.5826 73.6252 90.7722C73.2149 89.6221 73.3655 88.3466 74.0325 87.3233C74.6536 86.3569 75.6962 85.741 76.8436 85.6628C76.9338 85.6568 77.0244 85.6536 77.1159 85.6536C79.8197 86.1262 82.5544 86.4011 85.2982 86.476C84.5982 85.4688 84.4262 84.1868 84.8362 83.0312C85.5303 81.24 85.5588 79.2598 84.9164 77.4495C84.506 76.2993 84.6566 75.0239 85.3237 74.0006C85.9448 73.0342 86.9874 72.4183 88.1348 72.3401C88.225 72.334 88.3156 72.3309 88.4071 72.3309C90.6951 72.7304 93.0056 72.9886 95.3255 73.1042C94.8271 72.162 94.7457 71.0548 95.1009 70.05C95.7951 68.2589 95.8235 66.2787 95.1811 64.4684C94.7707 63.3182 94.9213 62.0427 95.5884 61.0194C96.2095 60.053 97.2521 59.4372 98.3995 59.3589C98.4897 59.3529 98.5802 59.3497 98.6718 59.3497C101.364 59.8203 104.087 60.0947 106.819 60.171C106.447 59.2936 106.417 58.3091 106.734 57.4105C107.428 55.6194 107.457 53.6392 106.814 51.8288C106.404 50.6787 106.555 49.4032 107.222 48.3799C107.843 47.4135 108.885 46.7976 110.033 46.7194C110.123 46.7134 110.214 46.7102 110.305 46.7102C116.717 47.837 123.277 47.8379 129.69 46.7127H129.698C130.193 46.8145 130.703 46.8145 131.198 46.7127H131.206C137.619 47.8379 144.178 47.837 150.591 46.7102C150.682 46.7102 150.773 46.7134 150.863 46.7194C152.01 46.7976 153.053 47.4135 153.674 48.3799C154.341 49.4032 154.492 50.6787 154.081 51.8288C153.439 53.6392 153.467 55.6194 154.162 57.4105C154.479 58.3091 154.449 59.2936 154.077 60.171C156.809 60.0947 159.532 59.8203 162.224 59.3497C162.316 59.3497 162.406 59.3529 162.496 59.3589C163.644 59.4372 164.686 60.053 165.307 61.0194C165.974 62.0428 166.125 63.3182 165.715 64.4684C165.072 66.2787 165.101 68.2589 165.795 70.05C166.15 71.0548 166.069 72.162 165.57 73.1042C167.89 72.9886 170.201 72.7304 172.489 72.3309C172.58 72.3309 172.671 72.334 172.761 72.3401C173.908 72.4183 174.951 73.0342 175.572 74.0006C176.239 75.0239 176.39 76.2993 175.979 77.4495C175.337 79.2598 175.365 81.24 176.06 83.0312C176.471 84.1897 176.297 85.4751 175.593 86.4833C175.898 86.7136 176.169 86.9871 176.395 87.2951C177.03 88.2028 177.225 89.3462 176.927 90.4124C176.432 92.334 176.456 94.4088 176.999 96.7556C177.196 97.5766 177.097 98.4406 176.721 99.1964C176.583 99.4654 176.415 99.718 176.22 99.9494C177.822 99.8089 179.419 99.5992 181.013 99.3204H181.021C182.303 99.316 183.509 99.9255 184.265 100.959C184.899 101.867 185.094 103.011 184.796 104.077C184.302 105.998 184.325 108.073 184.868 110.42C185.066 111.241 184.967 112.105 184.59 112.861Z" fill="white"/>
<path d="M234.357 26.2237H22.5146C22.0494 26.2134 21.6805 25.8286 21.6908 25.364C21.7007 24.9139 22.0638 24.5514 22.5146 24.5415H234.357C234.823 24.5517 235.191 24.9366 235.181 25.4011C235.171 25.8512 234.808 26.2137 234.357 26.2237Z" fill="#E6E6E6"/>
<path d="M130.995 144.48L130.972 144.478C124.547 143.585 118.03 143.585 111.605 144.478H111.595C110.951 144.481 110.317 144.328 109.746 144.033C108.116 143.149 107.378 141.207 108.01 139.466C108.705 137.675 108.733 135.695 108.091 133.885C107.68 132.734 107.831 131.459 108.498 130.436C109.119 129.469 110.162 128.853 111.309 128.775C111.399 128.769 111.49 128.766 111.581 128.766C117.993 129.893 124.553 129.894 130.966 128.768H130.974C132.256 128.764 133.462 129.373 134.217 130.407C134.852 131.315 135.047 132.459 134.749 133.525C134.254 135.446 134.278 137.521 134.821 139.868C135.018 140.689 134.92 141.553 134.543 142.309C133.866 143.643 132.494 144.483 130.995 144.48Z" fill="#6C63FF"/>
<path d="M150.752 110.986L145.584 106.716C141.708 108.744 135.81 116.842 135.81 116.842L122.205 126.611C120.571 126.689 119.31 128.075 119.387 129.706C119.465 131.337 120.853 132.597 122.487 132.519C123.547 132.469 124.499 131.855 124.983 130.912L143.469 121.159L150.752 110.986Z" fill="#FFB8B8"/>
<path d="M159.472 94.7338C162.455 97.2562 162.826 101.715 160.299 104.694C160.016 105.027 159.703 105.334 159.363 105.61L156.076 108.278C156.076 108.278 147.878 120.061 143.61 121.428L132.655 127.142L127.715 122.197L137.644 114.118C137.644 114.118 142.211 109.806 142.668 106.649C142.948 104.716 146.225 99.4491 149.51 95.543C152.032 92.5735 156.487 92.2069 159.461 94.7242L159.472 94.7338Z" fill="#3F3D56"/>
<path d="M148.851 222.617L144.181 222.616L141.96 204.634L148.852 204.634L148.851 222.617Z" fill="#FFB6B6"/>
<path d="M149.015 227.48L134.656 227.48V227.298C134.656 224.217 137.158 221.718 140.245 221.718L142.868 219.732L147.762 221.719L149.015 221.719L149.015 227.48Z" fill="#2F2E41"/>
<path d="M184.429 198.079L182.218 202.185L165.302 195.623L168.566 189.563L184.429 198.079Z" fill="#FFB6B6"/>
<path d="M188.798 200.237L181.998 212.864L181.838 212.778C179.119 211.319 178.1 207.935 179.562 205.221L179.562 205.221L179.051 201.973L183.121 198.611L183.715 197.509L188.798 200.237Z" fill="#2F2E41"/>
<path d="M140.022 140.268L135.901 173.185L137.962 184.221L175.053 200.445L177.114 193.759C167.633 187.966 157.497 179.2 151.111 178.556C151.111 178.556 150.582 172.714 155.157 169.109C156.08 168.382 155.878 167.398 156.251 166.506C156.508 165.892 157.529 165.254 157.791 164.624C158.129 163.809 157.71 162.998 158.051 162.17C158.242 161.704 158.969 161.674 159.159 161.208C159.484 160.413 159.271 159.181 159.588 158.395C160.264 156.716 160.914 155.074 161.508 153.534C163.356 148.742 164.657 144.945 164.492 144.126C163.977 141.554 140.022 140.268 140.022 140.268Z" fill="#2F2E41"/>
<path d="M139.312 173.09L137.156 186.991L142.598 215.361H149.81C152.401 205.828 152.535 193.3 150.068 182.7L139.312 173.09Z" fill="#2F2E41"/>
<path d="M143.946 100.05L147.271 94.2656L150.841 91.4065L157.538 90.3778L159.398 91.8062C166.094 102.024 168.591 114.424 166.371 126.431L165.848 129.258L165.516 131.052L165.66 133.196L164.542 136.318L164.696 138.604L164.778 139.825L164.861 141.051L164.976 142.761C165.182 143.737 164.145 143.609 164.291 144.469C164.549 145.98 165.704 148.22 163.949 148.227L145.815 144.469C141.208 144.488 136.919 139.003 141.367 134.563L143.946 100.05Z" fill="#3F3D56"/>
<path d="M152.434 88.7665C157.298 88.7665 161.24 84.8302 161.24 79.9747C161.24 75.1191 157.298 71.1828 152.434 71.1828C147.571 71.1828 143.628 75.1191 143.628 79.9747C143.628 84.8302 147.571 88.7665 152.434 88.7665Z" fill="#FFB8B8"/>
<path d="M152.584 88.5167C153.872 88.5368 155.16 88.4469 156.433 88.2481C157.695 87.9919 160.518 85.9265 161.305 84.6835C161.89 83.76 162.264 82.318 162.474 81.2709C163.048 78.4688 162.405 75.5551 160.705 73.2532C160.382 72.7771 159.936 72.3971 159.414 72.1533C159.368 72.1352 159.321 72.1192 159.273 72.1056C158.512 71.9059 157.829 71.4839 157.311 70.8938C157.211 70.7744 157.102 70.6624 156.985 70.5587C156.399 70.0652 155.705 69.7171 154.958 69.5428C153.754 69.2209 152.011 69.5405 149.777 70.4934C148.655 70.9722 147.428 70.7989 146.484 70.5944C146.376 70.5737 146.265 70.6115 146.193 70.6939C145.791 71.0704 145.262 71.2811 144.711 71.2838C144.373 71.2986 144.019 71.7651 143.591 72.3734C143.494 72.5114 143.381 72.6726 143.299 72.7706L143.288 72.5823L143.097 72.7924C142.115 73.873 142.197 75.5439 143.279 76.5243C143.57 76.7878 143.916 76.9833 144.292 77.0967C144.631 77.1868 144.979 77.2422 145.33 77.2618C145.542 77.2809 145.762 77.3006 145.973 77.3371C147.347 77.6182 148.473 78.5997 148.937 79.9219C149.132 80.4635 149.729 80.7451 150.272 80.5509C150.357 80.5204 150.438 80.479 150.512 80.4276C150.957 80.0815 151.544 79.9748 152.083 80.1421C152.312 80.2694 152.491 80.4717 152.589 80.7149C152.708 80.9859 152.905 81.2153 153.155 81.3741C154.01 81.8142 154.069 83.7644 153.762 85.39C153.466 86.957 152.88 88.0906 152.338 88.1466C151.921 88.1897 151.874 88.2193 151.843 88.293L151.816 88.3589L151.863 88.4206C152.094 88.504 152.339 88.5368 152.584 88.5167Z" fill="#2F2E41"/>
<path d="M134.759 83.332L134.735 83.3303C128.311 82.4366 121.793 82.4366 115.369 83.3303H115.358C114.715 83.3327 114.081 83.18 113.51 82.885C111.879 82.0009 111.141 80.0595 111.774 78.3183C112.468 76.5271 112.497 74.5469 111.854 72.7366C111.444 71.5865 111.595 70.311 112.262 69.2877C112.883 68.3213 113.925 67.7054 115.073 67.6272C115.163 67.6211 115.253 67.618 115.345 67.618C121.757 68.7448 128.317 68.7457 134.73 67.6205H134.738C136.02 67.616 137.226 68.2255 137.981 69.2595C138.616 70.1672 138.811 71.3106 138.513 72.3768C138.018 74.2984 138.042 76.3732 138.585 78.7199C138.782 79.5409 138.684 80.405 138.307 81.1607C137.63 82.4955 136.257 83.3355 134.759 83.332Z" fill="#6C63FF"/>
<path d="M142.994 104.039L146.638 98.4151C144.167 94.809 135.423 89.9074 135.423 89.9074L124.115 77.5585C123.846 75.9474 122.321 74.8585 120.707 75.1263C119.094 75.3941 118.003 76.9172 118.271 78.5282C118.445 79.5737 119.166 80.4463 120.162 80.8154L132.023 98.0055L142.994 104.039Z" fill="#FFB8B8"/>
<path d="M160.18 110.786C158.019 114.039 153.627 114.927 150.369 112.77C150.004 112.528 149.662 112.253 149.348 111.948L146.31 109.001C146.31 109.001 133.577 102.363 131.718 98.2913L123.375 86.4761L128.969 81.4376L138.693 90.2627C138.693 90.2627 143.17 95.4313 146.364 95.5158C148.319 95.5675 153.941 98.2018 158.211 101.003C161.459 103.156 162.345 107.53 160.188 110.773L160.18 110.786Z" fill="#3F3D56"/>
<path d="M75.3559 227.429L75.3321 227.427C68.9076 226.534 62.3901 226.534 55.9656 227.427H55.9552C55.312 227.43 54.6777 227.277 54.1064 226.982C52.4761 226.098 51.7383 224.157 52.3709 222.415C53.0651 220.624 53.0935 218.644 52.4511 216.834C52.0407 215.683 52.1914 214.408 52.8584 213.385C53.4795 212.418 54.5221 211.802 55.6695 211.724C55.7597 211.718 55.8503 211.715 55.9418 211.715C62.354 212.842 68.914 212.843 75.3265 211.717H75.3345C76.6163 211.713 77.8226 212.322 78.578 213.356C79.2125 214.264 79.4075 215.408 79.1096 216.474C78.615 218.395 78.6384 220.47 79.1817 222.817C79.3788 223.638 79.2803 224.502 78.9034 225.258C78.2267 226.593 76.8543 227.433 75.3559 227.429Z" fill="#6C63FF"/>
<path d="M80.8304 213.081L80.8066 213.08C74.3821 212.186 67.8645 212.186 61.4401 213.08H61.4297C60.7865 213.082 60.1522 212.929 59.5809 212.634C57.9506 211.75 57.2128 209.809 57.8454 208.068C58.5396 206.277 58.568 204.296 57.9256 202.486C57.5152 201.336 57.6659 200.06 58.3329 199.037C58.954 198.071 59.9966 197.455 61.144 197.377C61.2342 197.371 61.3248 197.367 61.4163 197.367C67.8285 198.494 74.3885 198.495 80.801 197.37H80.809C82.0908 197.365 83.297 197.975 84.0524 199.009C84.687 199.917 84.882 201.06 84.584 202.126C84.0895 204.048 84.1129 206.123 84.6562 208.469C84.8533 209.29 84.7548 210.154 84.3779 210.91C83.7012 212.245 82.3288 213.085 80.8304 213.081Z" fill="#6C63FF"/>
<path d="M32.9241 216.993L32.9388 216.974C37.28 212.162 40.9319 206.772 43.7903 200.959L43.7961 200.95C44.1545 200.417 44.6366 199.978 45.2015 199.671C46.8484 198.818 48.8724 199.296 49.9625 200.795C51.0595 202.372 52.6863 203.505 54.5481 203.988C55.7322 204.294 56.7059 205.133 57.1811 206.258C57.6348 207.313 57.5615 208.52 56.9835 209.513C56.938 209.591 56.8899 209.667 56.8386 209.743C52.3109 214.414 48.6345 219.839 45.9749 225.772L45.9704 225.778C45.2559 226.841 44.0743 227.497 42.7933 227.542C41.6847 227.558 40.6269 227.079 39.9093 226.235C38.5922 224.75 36.8578 223.606 34.6066 222.741C33.815 222.444 33.1534 221.878 32.7376 221.143C32.0094 219.835 32.0816 218.23 32.9241 216.993Z" fill="#6C63FF"/>
<path d="M54.831 18.4155C56.4291 18.4155 57.7245 17.0933 57.7245 15.4622C57.7245 13.8312 56.4291 12.509 54.831 12.509C53.233 12.509 51.9376 13.8312 51.9376 15.4622C51.9376 17.0933 53.233 18.4155 54.831 18.4155Z" fill="#3F3D56"/>
<path d="M64.8267 18.4155C66.4247 18.4155 67.7202 17.0933 67.7202 15.4622C67.7202 13.8312 66.4247 12.509 64.8267 12.509C63.2287 12.509 61.9332 13.8312 61.9332 15.4622C61.9332 17.0933 63.2287 18.4155 64.8267 18.4155Z" fill="#3F3D56"/>
<path d="M74.8224 18.4155C76.4204 18.4155 77.7159 17.0933 77.7159 15.4622C77.7159 13.8312 76.4204 12.509 74.8224 12.509C73.2243 12.509 71.9289 13.8312 71.9289 15.4622C71.9289 17.0933 73.2243 18.4155 74.8224 18.4155Z" fill="#3F3D56"/>
<path d="M86.2201 17.7964C86.1312 17.7964 86.0425 17.762 85.9755 17.6936L84.0231 15.701C83.893 15.5683 83.893 15.3561 84.0231 15.2233L85.9755 13.2309C86.108 13.0961 86.3249 13.0939 86.4593 13.2255C86.5945 13.3575 86.5968 13.5738 86.4647 13.7086L84.7464 15.4622L86.4647 17.2159C86.5968 17.3507 86.5945 17.567 86.4593 17.699C86.3928 17.764 86.3065 17.7964 86.2201 17.7964Z" fill="#3F3D56"/>
<path d="M89.5008 17.7964C89.4144 17.7964 89.3281 17.764 89.2616 17.699C89.1264 17.567 89.1241 17.3509 89.2562 17.2159L90.9744 15.4622L89.2562 13.7086C89.1241 13.5738 89.1264 13.3575 89.2616 13.2255C89.3964 13.0934 89.6132 13.0959 89.7454 13.2309L91.6976 15.2233C91.8277 15.3561 91.8277 15.5683 91.6976 15.701L89.7454 17.6936C89.6784 17.762 89.5897 17.7964 89.5008 17.7964Z" fill="#3F3D56"/>
<path d="M191.638 12.8509H188.008C187.593 12.8509 187.258 13.1857 187.258 13.5991V17.2269C187.258 17.6403 187.593 17.9751 188.008 17.9751H191.638C192.052 17.9751 192.391 17.6403 192.391 17.2269V13.5991C192.391 13.1857 192.052 12.8509 191.638 12.8509Z" fill="#3F3D56"/>
<path d="M182.742 12.8509H179.111C178.697 12.8509 178.362 13.1857 178.362 13.5991V17.2269C178.362 17.6403 178.697 17.9751 179.111 17.9751H182.742C183.156 17.9751 183.494 17.6403 183.494 17.2269V13.5991C183.494 13.1857 183.156 12.8509 182.742 12.8509Z" fill="#3F3D56"/>
<path d="M200.021 13.0217H196.39C195.976 13.0217 195.641 13.3565 195.641 13.7699V17.3977C195.641 17.8111 195.976 18.1459 196.39 18.1459H200.021C200.435 18.1459 200.773 17.8111 200.773 17.3977V13.7699C200.773 13.3565 200.435 13.0217 200.021 13.0217Z" fill="#3F3D56"/>
<path d="M145.302 14.4018H116.284C115.778 14.4018 115.371 14.8118 115.371 15.3139C115.371 15.8161 115.778 16.226 116.284 16.226H145.302C145.805 16.226 146.216 15.8161 146.216 15.3139C146.216 14.8118 145.805 14.4018 145.302 14.4018Z" fill="#3F3D56"/>
</g>
<defs>
<clipPath id="clip0_165_2">
<rect width="257" height="228.546" fill="white"/>
</clipPath>
</defs>
</svg>
