<svg width="299" height="227" viewBox="0 0 299 227" fill="none" xmlns="http://www.w3.org/2000/svg">
<g clip-path="url(#clip0_805_2)">
<path d="M269.99 135.201H61.5117V135.805H269.99V135.201Z" fill="#3F3D56"/>
<path d="M194.482 5.6347H120.486V4.01477H86.9326V5.6347H12.6308C11.9735 5.6347 11.3226 5.77221 10.7154 6.03939C10.1081 6.30656 9.5563 6.69817 9.09151 7.19185C8.62673 7.68552 8.25804 8.2716 8.00649 8.91662C7.75495 9.56164 7.62549 10.253 7.62549 10.9511V118.573C7.62549 119.983 8.15283 121.336 9.09151 122.333C10.0302 123.33 11.3033 123.89 12.6308 123.89H194.482C195.81 123.89 197.083 123.33 198.022 122.333C198.96 121.336 199.488 119.983 199.488 118.573V10.9511C199.488 10.253 199.358 9.56164 199.107 8.91662C198.855 8.2716 198.486 7.68552 198.022 7.19185C197.557 6.69817 197.005 6.30656 196.398 6.03939C195.791 5.77221 195.14 5.6347 194.482 5.6347Z" fill="#3F3D56"/>
<path d="M192.777 15.0304H14.3364V121.946H192.777V15.0304Z" fill="#6C63FF"/>
<path d="M103.404 12.1145C104.415 12.1145 105.235 11.2442 105.235 10.1706C105.235 9.09701 104.415 8.22668 103.404 8.22668C102.394 8.22668 101.574 9.09701 101.574 10.1706C101.574 11.2442 102.394 12.1145 103.404 12.1145Z" fill="#6C63FF"/>
<path opacity="0.1" d="M141.746 121.946H14.3364V15.0304L141.746 121.946Z" fill="black"/>
<path d="M42.2568 113.945C51.7297 113.945 59.4091 105.789 59.4091 95.7269C59.4091 85.6652 51.7297 77.5085 42.2568 77.5085C32.7838 77.5085 25.1045 85.6652 25.1045 95.7269C25.1045 105.789 32.7838 113.945 42.2568 113.945Z" fill="#F2F2F2"/>
<path d="M161.708 72.6907H145.04V76.3901H161.708V72.6907Z" fill="#3F3D56"/>
<path d="M181.859 43.8881H124.888V45.4735H181.859V43.8881Z" fill="#3F3D56"/>
<path d="M181.859 48.9087H124.888V50.4942H181.859V48.9087Z" fill="#3F3D56"/>
<path d="M181.859 53.9293H124.888V55.5148H181.859V53.9293Z" fill="#3F3D56"/>
<path d="M181.859 58.9501H124.888V60.5355H181.859V58.9501Z" fill="#3F3D56"/>
<path d="M181.859 63.9707H124.888V65.5562H181.859V63.9707Z" fill="#3F3D56"/>
<path d="M181.859 17.1995H174.893V24.5983H181.859V17.1995Z" fill="#F2F2F2"/>
<path d="M185.093 28.0334H176.635V19.0491H185.093V28.0334ZM177.003 27.6428H184.726V19.4397H177.003V27.6428Z" fill="#3F3D56"/>
<path d="M204.498 120.002H187.083V118.669C187.083 118.634 187.077 118.6 187.064 118.568C187.052 118.536 187.034 118.507 187.011 118.482C186.987 118.458 186.96 118.438 186.93 118.425C186.9 118.412 186.867 118.405 186.835 118.405H180.864C180.831 118.405 180.799 118.412 180.769 118.425C180.739 118.438 180.711 118.458 180.688 118.482C180.665 118.507 180.647 118.536 180.634 118.568C180.622 118.6 180.615 118.634 180.615 118.669V120.002H176.883V118.669C176.883 118.634 176.877 118.6 176.864 118.568C176.852 118.536 176.834 118.507 176.811 118.482C176.787 118.458 176.76 118.438 176.73 118.425C176.7 118.412 176.667 118.405 176.635 118.405H170.664C170.631 118.405 170.599 118.412 170.569 118.425C170.538 118.438 170.511 118.458 170.488 118.482C170.465 118.507 170.447 118.536 170.434 118.568C170.422 118.6 170.415 118.634 170.415 118.669V120.002H166.683V118.669C166.683 118.634 166.677 118.6 166.664 118.568C166.652 118.536 166.634 118.507 166.611 118.482C166.587 118.458 166.56 118.438 166.53 118.425C166.5 118.412 166.467 118.405 166.435 118.405H160.464C160.431 118.405 160.399 118.412 160.369 118.425C160.338 118.438 160.311 118.458 160.288 118.482C160.265 118.507 160.247 118.536 160.234 118.568C160.222 118.6 160.215 118.634 160.215 118.669V120.002H156.483V118.669C156.483 118.634 156.477 118.6 156.464 118.568C156.452 118.536 156.434 118.507 156.41 118.482C156.387 118.458 156.36 118.438 156.33 118.425C156.3 118.412 156.267 118.405 156.235 118.405H150.264C150.231 118.405 150.199 118.412 150.169 118.425C150.138 118.438 150.111 118.458 150.088 118.482C150.065 118.507 150.046 118.536 150.034 118.568C150.021 118.6 150.015 118.634 150.015 118.669V120.002H146.283V118.669C146.283 118.634 146.277 118.6 146.264 118.568C146.252 118.536 146.234 118.507 146.21 118.482C146.187 118.458 146.16 118.438 146.13 118.425C146.1 118.412 146.067 118.405 146.035 118.405H140.064C140.031 118.405 139.999 118.412 139.969 118.425C139.938 118.438 139.911 118.458 139.888 118.482C139.865 118.507 139.846 118.536 139.834 118.568C139.821 118.6 139.815 118.634 139.815 118.669V120.002H136.083V118.669C136.083 118.634 136.077 118.6 136.064 118.568C136.052 118.536 136.034 118.507 136.01 118.482C135.987 118.458 135.96 118.438 135.93 118.425C135.9 118.412 135.867 118.405 135.835 118.405H129.864C129.831 118.405 129.799 118.412 129.769 118.425C129.738 118.438 129.711 118.458 129.688 118.482C129.665 118.507 129.646 118.536 129.634 118.568C129.621 118.6 129.615 118.634 129.615 118.669V120.002H125.883V118.669C125.883 118.634 125.877 118.6 125.864 118.568C125.852 118.536 125.833 118.507 125.81 118.482C125.787 118.458 125.76 118.438 125.73 118.425C125.699 118.412 125.667 118.405 125.634 118.405H78.8636C78.831 118.405 78.7986 118.412 78.7684 118.425C78.7382 118.438 78.7108 118.458 78.6877 118.482C78.6646 118.507 78.6463 118.536 78.6338 118.568C78.6213 118.6 78.6148 118.634 78.6148 118.669V120.002H74.8831V118.669C74.8831 118.634 74.8767 118.6 74.8642 118.568C74.8517 118.536 74.8334 118.507 74.8103 118.482C74.7872 118.458 74.7597 118.438 74.7296 118.425C74.6994 118.412 74.667 118.405 74.6343 118.405H68.6636C68.6309 118.405 68.5986 118.412 68.5684 118.425C68.5382 118.438 68.5108 118.458 68.4877 118.482C68.4646 118.507 68.4463 118.536 68.4337 118.568C68.4212 118.6 68.4148 118.634 68.4148 118.669V120.002H64.6831V118.669C64.6831 118.634 64.6767 118.6 64.6642 118.568C64.6517 118.536 64.6333 118.507 64.6102 118.482C64.5871 118.458 64.5597 118.438 64.5295 118.425C64.4993 118.412 64.467 118.405 64.4343 118.405H58.4636C58.4309 118.405 58.3985 118.412 58.3684 118.425C58.3382 118.438 58.3108 118.458 58.2876 118.482C58.2645 118.507 58.2462 118.536 58.2337 118.568C58.2212 118.6 58.2148 118.634 58.2148 118.669V120.002H54.4831V118.669C54.4831 118.634 54.4766 118.6 54.4641 118.568C54.4516 118.536 54.4333 118.507 54.4102 118.482C54.3871 118.458 54.3597 118.438 54.3295 118.425C54.2993 118.412 54.267 118.405 54.2343 118.405H48.2635C48.2309 118.405 48.1985 118.412 48.1683 118.425C48.1382 118.438 48.1107 118.458 48.0876 118.482C48.0645 118.507 48.0462 118.536 48.0337 118.568C48.0212 118.6 48.0148 118.634 48.0148 118.669V120.002H44.2831V118.669C44.2831 118.634 44.2766 118.6 44.2641 118.568C44.2516 118.536 44.2333 118.507 44.2102 118.482C44.1871 118.458 44.1597 118.438 44.1295 118.425C44.0993 118.412 44.0669 118.405 44.0343 118.405H38.0635C38.0308 118.405 37.9985 118.412 37.9683 118.425C37.9381 118.438 37.9107 118.458 37.8876 118.482C37.8645 118.507 37.8462 118.536 37.8337 118.568C37.8212 118.6 37.8147 118.634 37.8147 118.669V120.002H34.083V118.669C34.083 118.634 34.0766 118.6 34.0641 118.568C34.0516 118.536 34.0333 118.507 34.0102 118.482C33.9871 118.458 33.9596 118.438 33.9294 118.425C33.8993 118.412 33.8669 118.405 33.8342 118.405H27.8635C27.8308 118.405 27.7985 118.412 27.7683 118.425C27.7381 118.438 27.7107 118.458 27.6876 118.482C27.6645 118.507 27.6461 118.536 27.6336 118.568C27.6211 118.6 27.6147 118.634 27.6147 118.669V120.002H23.883V118.669C23.883 118.634 23.8766 118.6 23.8641 118.568C23.8516 118.536 23.8332 118.507 23.8101 118.482C23.787 118.458 23.7596 118.438 23.7294 118.425C23.6992 118.412 23.6669 118.405 23.6342 118.405H17.6635C17.6308 118.405 17.5984 118.412 17.5683 118.425C17.5381 118.438 17.5106 118.458 17.4875 118.482C17.4644 118.507 17.4461 118.536 17.4336 118.568C17.4211 118.6 17.4147 118.634 17.4147 118.669V120.002H5.97075C4.38721 120.002 2.86853 120.67 1.74879 121.859C0.629061 123.049 1.50864e-06 124.662 0 126.344V129.211C4.52592e-06 130.893 0.629066 132.506 1.7488 133.696C2.86853 134.885 4.38721 135.553 5.97075 135.553H204.498C206.082 135.553 207.6 134.885 208.72 133.696C209.84 132.506 210.469 130.893 210.469 129.211V126.344C210.469 124.662 209.84 123.049 208.72 121.859C207.6 120.67 206.082 120.002 204.498 120.002Z" fill="#3F3D56"/>
<path d="M46.4087 107.106C42.1335 107.106 37.9543 105.759 34.3996 103.237C30.845 100.714 28.0744 97.128 26.4384 92.9328C24.8023 88.7375 24.3743 84.1212 25.2083 79.6675C26.0424 75.2139 28.1011 71.1229 31.1241 67.912C34.1471 64.7011 37.9986 62.5144 42.1917 61.6285C46.3847 60.7427 50.7309 61.1973 54.6807 62.9351C58.6304 64.6728 62.0064 67.6155 64.3815 71.3912C66.7567 75.1668 68.0244 79.6057 68.0244 84.1466C68.0179 90.2337 65.7385 96.0695 61.6862 100.374C57.6338 104.678 52.1396 107.099 46.4087 107.106ZM46.4087 61.7916C42.246 61.7916 38.1768 63.1027 34.7157 65.5591C31.2545 68.0155 28.5569 71.5069 26.9639 75.5917C25.3709 79.6766 24.9541 84.1714 25.7662 88.5079C26.5783 92.8444 28.5828 96.8276 31.5263 99.9541C34.4698 103.08 38.22 105.21 42.3027 106.072C46.3854 106.935 50.6172 106.492 54.463 104.8C58.3088 103.108 61.5959 100.243 63.9085 96.5664C66.2212 92.8902 67.4556 88.5681 67.4556 84.1466C67.4493 78.2198 65.2298 72.5376 61.2841 68.3466C57.3384 64.1557 51.9887 61.7983 46.4087 61.7916Z" fill="#3F3D56"/>
<path d="M239.244 9.83118H166.717V10.4354H239.244V9.83118Z" fill="#3F3D56"/>
<path d="M234.36 6.64612H226.396V15.1048H234.36V6.64612Z" fill="#6C63FF"/>
<path d="M239.195 10.2712H229.525V0H239.195V10.2712ZM229.945 9.82467H238.775V0.446577H229.945V9.82467Z" fill="#3F3D56"/>
<path d="M70.2019 194.52C79.5078 194.52 87.0517 186.507 87.0517 176.623C87.0517 166.738 79.5078 158.726 70.2019 158.726C60.896 158.726 53.3521 166.738 53.3521 176.623C53.3521 186.507 60.896 194.52 70.2019 194.52Z" fill="#F2F2F2"/>
<path d="M47.9416 199.901C57.2475 199.901 64.7915 191.888 64.7915 182.004C64.7915 172.119 57.2475 164.106 47.9416 164.106C38.6357 164.106 31.0918 172.119 31.0918 182.004C31.0918 191.888 38.6357 199.901 47.9416 199.901Z" fill="#6C63FF"/>
<path d="M299 196.338H90.522V196.942H299V196.338Z" fill="#3F3D56"/>
<path d="M127.326 224.13H54.7993V224.735H127.326V224.13Z" fill="#3F3D56"/>
<path d="M116.924 193.152H108.96V201.611H116.924V193.152Z" fill="#6C63FF"/>
<path d="M121.76 196.778H112.089V186.506H121.76V196.778ZM112.51 196.331H121.339V186.953H112.51V196.331Z" fill="#3F3D56"/>
<path d="M289.566 193.152H281.602V201.611H289.566V193.152Z" fill="#6C63FF"/>
<path d="M294.401 196.778H284.73V186.506H294.401V196.778ZM285.151 196.331H293.98V186.953H285.151V196.331Z" fill="#3F3D56"/>
<path d="M275.678 97.0735H275.001V77.3885C275.001 75.8923 274.724 74.4108 274.185 73.0285C273.646 71.6463 272.856 70.3903 271.86 69.3323C270.864 68.2744 269.681 67.4352 268.38 66.8626C267.078 66.29 265.684 65.9954 264.275 65.9954H225.01C223.602 65.9954 222.207 66.29 220.905 66.8626C219.604 67.4352 218.421 68.2744 217.425 69.3323C216.429 70.3903 215.639 71.6462 215.1 73.0285C214.561 74.4108 214.284 75.8923 214.284 77.3885V185.382C214.284 186.878 214.561 188.36 215.1 189.742C215.639 191.124 216.429 192.38 217.425 193.438C218.421 194.496 219.604 195.335 220.905 195.908C222.207 196.48 223.602 196.775 225.01 196.775H264.275C265.684 196.775 267.078 196.48 268.38 195.908C269.681 195.335 270.864 194.496 271.86 193.438C272.856 192.38 273.646 191.124 274.185 189.742C274.724 188.36 275.001 186.878 275.001 185.382V111.086H275.678V97.0735Z" fill="#3F3D56"/>
<path d="M272.717 78.0581V185.894C272.718 188.151 271.874 190.315 270.372 191.911C268.87 193.507 266.833 194.404 264.708 194.404H225.254C223.129 194.404 221.092 193.507 219.59 191.911C218.088 190.315 217.244 188.151 217.245 185.894V78.0581C217.245 75.802 218.089 73.6384 219.591 72.0431C221.093 70.4477 223.13 69.5514 225.254 69.5511H230.041C229.805 70.1649 229.715 70.8307 229.779 71.4901C229.843 72.1494 230.058 72.7819 230.406 73.332C230.754 73.882 231.225 74.3327 231.775 74.6443C232.326 74.9559 232.941 75.1188 233.565 75.1188H256.059C256.683 75.1188 257.298 74.9559 257.848 74.6443C258.399 74.3327 258.869 73.882 259.217 73.332C259.565 72.7819 259.781 72.1494 259.845 71.4901C259.908 70.8307 259.819 70.1649 259.583 69.5511H264.708C266.832 69.5514 268.869 70.4477 270.371 72.0431C271.873 73.6384 272.717 75.802 272.717 78.0581Z" fill="#6C63FF"/>
<path d="M250.857 140.654H239.104V144.353H250.857V140.654Z" fill="#3F3D56"/>
<path d="M265.066 111.851H224.895V113.437H265.066V111.851Z" fill="#3F3D56"/>
<path d="M265.066 116.872H224.895V118.457H265.066V116.872Z" fill="#3F3D56"/>
<path d="M265.066 121.892H224.895V123.478H265.066V121.892Z" fill="#3F3D56"/>
<path d="M265.066 126.913H224.895V128.498H265.066V126.913Z" fill="#3F3D56"/>
<path d="M265.066 131.934H224.895V133.519H265.066V131.934Z" fill="#3F3D56"/>
<path d="M246.384 90.7961H239.418V98.195H246.384V90.7961Z" fill="#F2F2F2"/>
<path d="M242.085 92.6462V101.631H250.544V92.6462H242.085ZM250.177 101.241H242.452V93.0359H250.177V101.241Z" fill="#3F3D56"/>
<path opacity="0.1" d="M272.717 174.378V185.894C272.718 188.151 271.874 190.315 270.372 191.911C268.87 193.507 266.833 194.404 264.708 194.404H225.254C223.129 194.404 221.092 193.507 219.59 191.911C218.088 190.315 217.244 188.151 217.245 185.894V127.828L250.484 155.721L251.053 156.198L257.237 161.385L257.814 161.872L272.717 174.378Z" fill="black"/>
<path d="M241.568 190.909C248.458 190.909 254.044 184.976 254.044 177.657C254.044 170.338 248.458 164.405 241.568 164.405C234.677 164.405 229.091 170.338 229.091 177.657C229.091 184.976 234.677 190.909 241.568 190.909Z" fill="#F2F2F2"/>
<path d="M66.0622 224.735C61.1682 224.735 56.3842 223.193 52.315 220.305C48.2458 217.417 45.0743 213.312 43.2014 208.51C41.3286 203.708 40.8386 198.423 41.7933 193.325C42.7481 188.227 45.1048 183.543 48.5653 179.868C52.0259 176.192 56.4349 173.689 61.2348 172.675C66.0347 171.661 71.01 172.181 75.5314 174.171C80.0529 176.16 83.9174 179.528 86.6363 183.851C89.3553 188.173 90.8065 193.254 90.8065 198.452C90.7991 205.42 88.1897 212.101 83.5509 217.028C78.912 221.955 72.6225 224.727 66.0622 224.735ZM66.0622 172.774C61.2807 172.774 56.6067 174.28 52.631 177.102C48.6554 179.923 45.5568 183.934 43.727 188.626C41.8972 193.318 41.4184 198.481 42.3512 203.462C43.2841 208.443 45.5865 213.018 48.9675 216.609C52.3486 220.201 56.6562 222.646 61.3458 223.637C66.0354 224.628 70.8963 224.119 75.3137 222.176C79.7312 220.232 83.5069 216.941 86.1634 212.718C88.8198 208.495 90.2377 203.531 90.2377 198.452C90.2304 191.644 87.681 185.117 83.1488 180.304C78.6166 175.49 72.4717 172.782 66.0622 172.774Z" fill="#3F3D56"/>
<path d="M245.245 187.879C242.152 187.879 239.127 186.904 236.555 185.079C233.982 183.253 231.977 180.658 230.793 177.622C229.609 174.586 229.3 171.245 229.903 168.022C230.507 164.799 231.997 161.839 234.184 159.515C236.372 157.191 239.159 155.609 242.194 154.968C245.228 154.327 248.373 154.656 251.232 155.913C254.09 157.171 256.533 159.3 258.252 162.033C259.971 164.765 260.888 167.978 260.888 171.264C260.884 175.669 259.234 179.892 256.302 183.007C253.369 186.122 249.393 187.874 245.245 187.879ZM245.245 155.253C242.264 155.253 239.35 156.192 236.871 157.951C234.392 159.71 232.46 162.211 231.319 165.137C230.178 168.062 229.879 171.281 230.461 174.387C231.043 177.493 232.478 180.346 234.586 182.585C236.695 184.824 239.381 186.349 242.305 186.967C245.229 187.585 248.26 187.268 251.014 186.056C253.769 184.844 256.123 182.792 257.779 180.159C259.436 177.526 260.32 174.43 260.32 171.264C260.315 167.019 258.726 162.949 255.9 159.947C253.074 156.946 249.242 155.257 245.245 155.253Z" fill="#3F3D56"/>
</g>
<defs>
<clipPath id="clip0_805_2">
<rect width="299" height="227" fill="white"/>
</clipPath>
</defs>
</svg>
