<svg width="287" height="229" viewBox="0 0 287 229" fill="none" xmlns="http://www.w3.org/2000/svg">
<path d="M143.639 194.85C124.215 194.85 105.392 188.129 90.3776 175.832C75.3628 163.535 65.0852 146.423 61.2958 127.411C57.5064 108.399 60.4398 88.6649 69.5962 71.5698C78.7525 54.4746 93.5653 41.0767 111.511 33.6588C129.456 26.2409 149.423 25.262 168.011 30.8889C186.598 36.5158 202.655 48.4003 213.447 64.5175C224.238 80.6347 229.096 99.9873 227.192 119.278C225.288 138.569 216.74 156.604 203.006 170.31C195.228 178.115 185.976 184.302 175.785 188.514C165.595 192.727 154.669 194.88 143.639 194.85ZM143.639 27.925C97.7012 27.925 60.3278 65.2217 60.3278 111.066C60.3278 156.909 97.7012 194.206 143.639 194.206C189.577 194.206 226.95 156.909 226.95 111.066C226.95 65.2217 189.577 27.925 143.639 27.925Z" fill="#CCCCCC"/>
<path d="M174.813 207.415V123.007H111.861V207.415H174.813Z" fill="#2F2E41"/>
<path d="M185.628 120.429H101.046V153.935H185.628V120.429Z" fill="#3F3D56"/>
<path d="M185.628 157.801H101.046V191.306H185.628V157.801Z" fill="#3F3D56"/>
<path d="M185.628 195.172H101.046V228.678H185.628V195.172Z" fill="#3F3D56"/>
<path d="M185.628 134.636H101.046V139.79H185.628V134.636Z" fill="#6C63FF"/>
<path d="M185.628 172.007H101.046V177.162H185.628V172.007Z" fill="#6C63FF"/>
<path d="M185.628 209.379H101.046V214.534H185.628V209.379Z" fill="#6C63FF"/>
<path d="M169.164 127.195C170.233 127.195 171.101 126.329 171.101 125.262C171.101 124.194 170.233 123.329 169.164 123.329C168.094 123.329 167.227 124.194 167.227 125.262C167.227 126.329 168.094 127.195 169.164 127.195Z" fill="#6C63FF"/>
<path d="M175.943 127.195C177.013 127.195 177.88 126.329 177.88 125.262C177.88 124.194 177.013 123.329 175.943 123.329C174.873 123.329 174.006 124.194 174.006 125.262C174.006 126.329 174.873 127.195 175.943 127.195Z" fill="#6C63FF"/>
<path d="M182.722 127.195C183.792 127.195 184.659 126.329 184.659 125.262C184.659 124.194 183.792 123.329 182.722 123.329C181.653 123.329 180.785 124.194 180.785 125.262C180.785 126.329 181.653 127.195 182.722 127.195Z" fill="#6C63FF"/>
<path d="M169.164 163.922C170.233 163.922 171.101 163.057 171.101 161.989C171.101 160.921 170.233 160.056 169.164 160.056C168.094 160.056 167.227 160.921 167.227 161.989C167.227 163.057 168.094 163.922 169.164 163.922Z" fill="#6C63FF"/>
<path d="M175.943 163.922C177.013 163.922 177.88 163.057 177.88 161.989C177.88 160.921 177.013 160.056 175.943 160.056C174.873 160.056 174.006 160.921 174.006 161.989C174.006 163.057 174.873 163.922 175.943 163.922Z" fill="#6C63FF"/>
<path d="M182.722 163.922C183.792 163.922 184.659 163.057 184.659 161.989C184.659 160.921 183.792 160.056 182.722 160.056C181.653 160.056 180.785 160.921 180.785 161.989C180.785 163.057 181.653 163.922 182.722 163.922Z" fill="#6C63FF"/>
<path d="M169.164 200.649C170.233 200.649 171.101 199.784 171.101 198.716C171.101 197.649 170.233 196.783 169.164 196.783C168.094 196.783 167.227 197.649 167.227 198.716C167.227 199.784 168.094 200.649 169.164 200.649Z" fill="#6C63FF"/>
<path d="M175.943 200.649C177.013 200.649 177.88 199.784 177.88 198.716C177.88 197.649 177.013 196.783 175.943 196.783C174.873 196.783 174.006 197.649 174.006 198.716C174.006 199.784 174.873 200.649 175.943 200.649Z" fill="#6C63FF"/>
<path d="M182.722 200.649C183.792 200.649 184.659 199.784 184.659 198.716C184.659 197.649 183.792 196.783 182.722 196.783C181.653 196.783 180.785 197.649 180.785 198.716C180.785 199.784 181.653 200.649 182.722 200.649Z" fill="#6C63FF"/>
<path d="M78.086 87.3286V147.249C78.0858 148.503 77.5867 149.705 76.6984 150.592C75.8102 151.478 74.6055 151.976 73.3493 151.976H50.0156C48.7592 151.977 47.5541 151.479 46.6654 150.592C45.7768 149.706 45.2773 148.503 45.277 147.249V87.3286C45.2773 86.0747 45.7768 84.8723 46.6654 83.9859C47.5541 83.0994 48.7592 82.6015 50.0156 82.6017H52.8462C52.7072 82.9428 52.6543 83.3127 52.6921 83.679C52.73 84.0453 52.8574 84.3967 53.0632 84.7023C53.269 85.0079 53.5468 85.2584 53.8724 85.4318C54.1979 85.6051 54.5611 85.696 54.9301 85.6965H68.2334C68.6024 85.696 68.9656 85.6051 69.2911 85.4318C69.6167 85.2584 69.8945 85.0079 70.1003 84.7023C70.3061 84.3967 70.4335 84.0453 70.4714 83.679C70.5092 83.3127 70.4563 82.9428 70.3173 82.6017H73.3494C74.6055 82.6019 75.8102 83.1 76.6984 83.9865C77.5867 84.8729 78.0858 86.075 78.086 87.3286Z" fill="#E6E6E6"/>
<path d="M76.5316 94.0444H46.8312V135.282H76.5316V94.0444Z" fill="white"/>
<path d="M67.1183 122.401H55.264V123.077H67.1183V122.401Z" fill="#E6E6E6"/>
<path d="M73.5944 124.883H55.2521V125.559H73.5944V124.883Z" fill="#6C63FF"/>
<path d="M69.6466 127.221H55.2521V127.897H69.6466V127.221Z" fill="#E6E6E6"/>
<path d="M63.7194 129.56H55.2521V130.236H63.7194V129.56Z" fill="#E6E6E6"/>
<path d="M67.9531 131.898H55.2521V132.574H67.9531V131.898Z" fill="#E6E6E6"/>
<path d="M51.243 122.206H49.8882V123.558H51.243V122.206Z" fill="#E6E6E6"/>
<path d="M51.243 124.545H49.8882V125.897H51.243V124.545Z" fill="#6C63FF"/>
<path d="M51.243 126.883H49.8882V128.235H51.243V126.883Z" fill="#E6E6E6"/>
<path d="M51.243 129.222H49.8882V130.574H51.243V129.222Z" fill="#E6E6E6"/>
<path d="M51.243 131.56H49.8882V132.912H51.243V131.56Z" fill="#E6E6E6"/>
<path d="M67.7134 99.1991H55.7694V111.119H67.7134V99.1991Z" fill="#E6E6E6"/>
<path d="M183.044 0.0449066H103.665V50.7785H183.044V0.0449066Z" fill="#E6E6E6"/>
<path d="M175.461 14.2384H109.649V39.0567H175.461V14.2384Z" fill="white"/>
<path d="M137.435 18.5382H121.639V19.4389H137.435V18.5382Z" fill="#E6E6E6"/>
<path d="M146.064 21.8454H121.624V22.7461H146.064V21.8454Z" fill="#6C63FF"/>
<path d="M140.803 24.9613H121.624V25.862H140.803V24.9613Z" fill="#E6E6E6"/>
<path d="M132.906 28.0772H121.624V28.9779H132.906V28.0772Z" fill="#E6E6E6"/>
<path d="M138.547 31.1931H121.624V32.0938H138.547V31.1931Z" fill="#E6E6E6"/>
<path d="M116.281 18.2792H114.476V20.0806H116.281V18.2792Z" fill="#E6E6E6"/>
<path d="M116.281 21.3951H114.476V23.1965H116.281V21.3951Z" fill="#6C63FF"/>
<path d="M116.281 24.511H114.476V26.3124H116.281V24.511Z" fill="#E6E6E6"/>
<path d="M116.281 27.6268H114.476V29.4283H116.281V27.6268Z" fill="#E6E6E6"/>
<path d="M116.281 30.7428H114.476V32.5442H116.281V30.7428Z" fill="#E6E6E6"/>
<path d="M172.232 17.348H156.071V33.4754H172.232V17.348Z" fill="#E6E6E6"/>
<path d="M183.01 0H103.631V3.36539H183.01V0Z" fill="#6C63FF"/>
<path d="M106.137 2.39611C106.511 2.39611 106.814 2.09366 106.814 1.72056C106.814 1.34747 106.511 1.04502 106.137 1.04502C105.763 1.04502 105.46 1.34747 105.46 1.72056C105.46 2.09366 105.763 2.39611 106.137 2.39611Z" fill="white"/>
<path d="M108.509 2.39611C108.883 2.39611 109.186 2.09366 109.186 1.72056C109.186 1.34747 108.883 1.04502 108.509 1.04502C108.135 1.04502 107.832 1.34747 107.832 1.72056C107.832 2.09366 108.135 2.39611 108.509 2.39611Z" fill="white"/>
<path d="M110.882 2.39611C111.255 2.39611 111.558 2.09366 111.558 1.72056C111.558 1.34747 111.255 1.04502 110.882 1.04502C110.508 1.04502 110.205 1.34747 110.205 1.72056C110.205 2.09366 110.508 2.39611 110.882 2.39611Z" fill="white"/>
<path d="M236.199 94.9778H216.829V104.965H236.199V94.9778Z" fill="#E6E6E6"/>
<path d="M236.199 130.739H216.829V140.726H236.199V130.739Z" fill="#E6E6E6"/>
<path d="M226.514 133.96C235.428 133.96 242.655 126.748 242.655 117.852C242.655 108.955 235.428 101.743 226.514 101.743C217.599 101.743 210.372 108.955 210.372 117.852C210.372 126.748 217.599 133.96 226.514 133.96Z" fill="#E6E6E6"/>
<path d="M226.514 130.416C233.467 130.416 239.104 124.791 239.104 117.852C239.104 110.913 233.467 105.287 226.514 105.287C219.56 105.287 213.923 110.913 213.923 117.852C213.923 124.791 219.56 130.416 226.514 130.416Z" fill="white"/>
<path d="M232.155 114.409H222.391V114.966H232.155V114.409Z" fill="#E2E2E2"/>
<path d="M237.49 116.454H222.381V117.011H237.49V116.454Z" fill="#6C63FF"/>
<path d="M234.238 118.38H222.381V118.937H234.238V118.38Z" fill="#E2E2E2"/>
<path d="M229.356 120.306H222.381V120.863H229.356V120.306Z" fill="#E2E2E2"/>
<path d="M232.843 122.233H222.381V122.789H232.843V122.233Z" fill="#E2E2E2"/>
<path d="M219.079 114.249H217.963V115.363H219.079V114.249Z" fill="#E2E2E2"/>
<path d="M219.079 116.175H217.963V117.289H219.079V116.175Z" fill="#6C63FF"/>
<path d="M219.079 118.102H217.963V119.215H219.079V118.102Z" fill="#E2E2E2"/>
<path d="M219.079 120.028H217.963V121.142H219.079V120.028Z" fill="#E2E2E2"/>
<path d="M219.079 121.954H217.963V123.068H219.079V121.954Z" fill="#E2E2E2"/>
</svg>
